<svg width="12" height="14" viewBox="0 0 12 14" fill="none" xmlns="http://www.w3.org/2000/svg">
<path d="M11.5438 6.64012C11.6405 6.74276 11.6941 6.88068 11.6929 7.02391C11.6917 7.16713 11.6357 7.30406 11.5373 7.40493L6.21047 12.8995C5.52821 13.6042 4.60287 14 3.63801 14C2.67315 14 1.74781 13.6042 1.06555 12.8995C0.383289 12.1949 0 11.2393 0 10.2428C0 9.24634 0.383289 8.29068 1.06555 7.58607L7.51619 0.836895C7.75485 0.577 8.04148 0.36908 8.35918 0.225391C8.67688 0.0817012 9.01922 0.00515062 9.36601 0.000251084C9.71281 -0.00464845 10.057 0.0622022 10.3784 0.196863C10.6998 0.331523 10.9918 0.531268 11.2373 0.784323C11.4828 1.03738 11.6767 1.33862 11.8077 1.6703C11.9386 2.00197 12.0039 2.35737 11.9998 2.71553C11.9957 3.0737 11.9222 3.42739 11.7836 3.75575C11.645 4.08411 11.4442 4.38049 11.193 4.62744L4.74235 11.3766C4.59816 11.5278 4.42623 11.6478 4.23661 11.7296C4.047 11.8114 3.8435 11.8533 3.63801 11.853C3.3291 11.8537 3.02692 11.7597 2.76983 11.5829C2.51274 11.406 2.31232 11.1542 2.194 10.8595C2.07568 10.5648 2.0448 10.2405 2.10528 9.9276C2.16575 9.61474 2.31486 9.32749 2.53367 9.10229L7.94493 3.42654C7.99175 3.3723 8.04876 3.32844 8.11248 3.29763C8.17621 3.26681 8.24533 3.24969 8.31566 3.24728C8.38599 3.24488 8.45605 3.25725 8.52161 3.28365C8.58717 3.31005 8.64685 3.34992 8.69705 3.40085C8.74724 3.45178 8.7869 3.5127 8.81361 3.57993C8.84033 3.64716 8.85355 3.71929 8.85247 3.79195C8.85139 3.86461 8.83603 3.93629 8.80732 4.00264C8.77862 4.06899 8.73717 4.12863 8.68548 4.17794L3.27423 9.8604C3.22497 9.91027 3.18581 9.96976 3.15904 10.0354C3.13228 10.1011 3.11843 10.1716 3.11832 10.2428C3.12022 10.3484 3.15188 10.4511 3.20942 10.5384C3.26695 10.6257 3.34787 10.6938 3.44229 10.7344C3.5367 10.775 3.64051 10.7863 3.74103 10.7669C3.84155 10.7475 3.93442 10.6982 4.00829 10.6252L10.4524 3.86933C10.5988 3.72042 10.715 3.54286 10.7942 3.34703C10.8734 3.1512 10.914 2.94103 10.9137 2.72881C10.9144 2.40978 10.8234 2.09771 10.6521 1.83219C10.4809 1.56668 10.2371 1.35969 9.95173 1.2375C9.66638 1.1153 9.35231 1.08341 9.04937 1.14587C8.74644 1.20832 8.4683 1.36231 8.25025 1.58829L1.8061 8.34418C1.55445 8.59067 1.35313 8.88669 1.214 9.2148C1.07487 9.5429 1.00074 9.89645 0.996 10.2546C0.991256 10.6128 1.05599 10.9683 1.18637 11.3002C1.31676 11.6321 1.51017 11.9337 1.7552 12.1872C2.00023 12.4407 2.29192 12.641 2.61307 12.7762C2.93422 12.9115 3.27835 12.979 3.62515 12.9747C3.97195 12.9704 4.31442 12.8945 4.63237 12.7514C4.95031 12.6083 5.2373 12.4009 5.47641 12.1414L10.8032 6.64012C10.9017 6.53933 11.0348 6.48279 11.1735 6.48279C11.3122 6.48279 11.4452 6.53933 11.5438 6.64012Z" fill="#362A15"/>
</svg>
