<svg width="16" height="9" viewBox="0 0 16 9" fill="none" xmlns="http://www.w3.org/2000/svg">
<path d="M15.5107 0.983597C15.4581 0.858471 15.3696 0.751713 15.2565 0.676777C15.1433 0.60184 15.0105 0.562079 14.8747 0.562503H1.12474C0.989008 0.562079 0.85619 0.60184 0.743021 0.676777C0.629851 0.751713 0.541395 0.858471 0.4888 0.983597C0.439269 1.11059 0.426704 1.249 0.452558 1.38283C0.478412 1.51667 0.541628 1.64044 0.634894 1.73985L7.50989 8.61485C7.6413 8.74191 7.81694 8.81294 7.99974 8.81294C8.18253 8.81294 8.35817 8.74191 8.48958 8.61485L15.3646 1.73985C15.4578 1.64044 15.5211 1.51667 15.5469 1.38283C15.5728 1.249 15.5602 1.11059 15.5107 0.983597Z" fill="black"/>
</svg>
