<svg width="28" height="29" viewBox="0 0 28 29" fill="none" xmlns="http://www.w3.org/2000/svg">
<path d="M13.9848 10.2408C14.9192 10.2408 15.7942 10.6033 16.4567 11.2658C17.1161 11.9283 17.4817 12.8033 17.4817 13.7377C17.4817 14.6721 17.1161 15.5471 16.4567 16.2096C15.7942 16.8689 14.9192 17.2346 13.9848 17.2346C13.0505 17.2346 12.1755 16.8689 11.513 16.2096C10.8536 15.5471 10.488 14.6721 10.488 13.7377C10.488 12.8033 10.8536 11.9283 11.513 11.2658C11.8366 10.9397 12.2217 10.6812 12.646 10.5053C13.0704 10.3293 13.5255 10.2394 13.9848 10.2408ZM1.10047 17.6002L3.14422 15.8533C3.04734 15.2596 2.99734 14.6533 2.99734 14.0502C2.99734 13.4471 3.04734 12.8377 3.14422 12.2471L1.10047 10.5002C0.946081 10.368 0.835583 10.192 0.783669 9.9955C0.731754 9.79901 0.740887 9.59137 0.809845 9.4002L0.837969 9.31895C1.40043 7.7461 2.24321 6.28818 3.32547 5.01582L3.38172 4.9502C3.51314 4.79567 3.6883 4.68459 3.8841 4.63159C4.07991 4.5786 4.28718 4.58617 4.4786 4.65332L7.0161 5.55645C7.9536 4.78769 8.99734 4.18145 10.1286 3.75957L10.6192 1.10645C10.6562 0.906577 10.7532 0.722703 10.8972 0.579251C11.0412 0.435799 11.2255 0.33956 11.4255 0.30332L11.5098 0.287695C13.1348 -0.00605468 14.8473 -0.00605468 16.4723 0.287695L16.5567 0.30332C16.7567 0.33956 16.941 0.435799 17.085 0.579251C17.229 0.722703 17.326 0.906577 17.363 1.10645L17.8567 3.77207C18.9773 4.19731 20.0211 4.80209 20.9473 5.5627L23.5036 4.65332C23.695 4.58564 23.9024 4.57779 24.0983 4.63082C24.2942 4.68385 24.4694 4.79524 24.6005 4.9502L24.6567 5.01582C25.7371 6.28954 26.5796 7.74709 27.1442 9.31895L27.1723 9.4002C27.313 9.79082 27.1973 10.2283 26.8817 10.5002L24.813 12.2658C24.9098 12.8533 24.9567 13.4533 24.9567 14.0471C24.9567 14.6471 24.9098 15.2471 24.813 15.8283L26.8755 17.5939C27.0299 17.7261 27.1404 17.9021 27.1923 18.0986C27.2442 18.2951 27.2351 18.5028 27.1661 18.6939L27.138 18.7752C26.5723 20.3471 25.738 21.8002 24.6505 23.0783L24.5942 23.1439C24.4628 23.2985 24.2876 23.4096 24.0918 23.4625C23.896 23.5155 23.6888 23.508 23.4973 23.4408L20.9411 22.5314C20.0098 23.2971 18.9723 23.9033 17.8505 24.3221L17.3567 26.9877C17.3197 27.1876 17.2228 27.3714 17.0787 27.5149C16.9347 27.6583 16.7505 27.7546 16.5505 27.7908L16.4661 27.8064C14.8251 28.1018 13.1446 28.1018 11.5036 27.8064L11.4192 27.7908C11.2192 27.7546 11.035 27.6583 10.891 27.5149C10.7469 27.3714 10.65 27.1876 10.613 26.9877L10.1223 24.3346C8.9911 23.9096 7.94735 23.3064 7.00985 22.5377L4.47235 23.4408C4.28099 23.5085 4.07357 23.5163 3.87764 23.4633C3.68172 23.4103 3.50657 23.2989 3.37547 23.1439L3.31922 23.0783C2.23172 21.7939 1.39734 20.3471 0.831718 18.7752L0.803595 18.6939C0.66922 18.3064 0.784845 17.8721 1.10047 17.6002ZM13.9848 19.2314C17.0192 19.2314 19.4786 16.7721 19.4786 13.7377C19.4786 10.7033 17.0192 8.24395 13.9848 8.24395C10.9505 8.24395 8.4911 10.7033 8.4911 13.7377C8.4911 16.7721 10.9505 19.2314 13.9848 19.2314Z" fill="#F48070"/>
</svg>
