<svg width="198" height="200" viewBox="0 0 198 200" fill="none" xmlns="http://www.w3.org/2000/svg">
<g clip-path="url(#clip0_2_12)">
<rect width="198" height="200" fill="#FFD9BE"/>
<g opacity="0.75">
<g opacity="0.35">
<path d="M114.145 132.147C115.303 127.83 113.694 124.112 112.142 120.52C110.792 117.393 109.518 114.439 109.772 110.907C110.497 101.136 111.151 95.3909 104.574 90.8102C97.998 86.2295 92.926 88.8993 84.1656 93.0689C80.9935 94.5773 77.8011 94.4239 74.43 94.2665C70.561 94.0849 66.5647 93.8922 62.9977 96.522C61.6769 97.4463 60.5371 98.6108 59.6363 99.9565C55.8007 105.603 57.121 113.29 62.0414 116.717C66.9617 120.145 75.1506 122.147 80.6869 126.003C86.2232 129.859 90.9079 136.824 95.8899 140.294C100.872 143.764 108.357 142.21 112.193 136.564C113.107 135.226 113.769 133.729 114.145 132.147V132.147Z" fill="#FFB988"/>
<path d="M70.3444 86.5677C74.5774 89.5161 81.0438 87.4389 84.7875 81.928C88.5313 76.4171 88.1346 69.5595 83.9016 66.611C79.6686 63.6626 73.2022 65.7399 69.4585 71.2508C65.7147 76.7617 66.1114 83.6193 70.3444 86.5677Z" fill="#FFB988"/>
<path d="M94.7116 83.9404C98.9446 86.8888 105.411 84.8116 109.155 79.3007C112.898 73.7898 112.502 66.9321 108.269 63.9837C104.036 61.0353 97.5694 63.1126 93.8257 68.6235C90.0819 74.1344 90.4786 80.992 94.7116 83.9404Z" fill="#FFB988"/>
<path d="M114.42 97.6682C118.653 100.617 125.12 98.5393 128.864 93.0284C132.607 87.5175 132.211 80.6599 127.978 77.7115C123.745 74.7631 117.278 76.8404 113.534 82.3513C109.791 87.8622 110.187 94.7198 114.42 97.6682Z" fill="#FFB988"/>
<path d="M120.711 121.65C124.944 124.598 131.411 122.521 135.154 117.01C138.898 111.499 138.502 104.642 134.269 101.693C130.036 98.7447 123.569 100.822 119.825 106.333C116.082 111.844 116.478 118.701 120.711 121.65Z" fill="#FFB988"/>
</g>
</g>
<g opacity="0.75">
<g opacity="0.35">
<path d="M213.145 32.1475C214.303 27.83 212.694 24.1119 211.142 20.5197C209.792 17.3929 208.518 14.4393 208.772 10.9068C209.497 1.13561 210.151 -4.60911 203.574 -9.1898C196.998 -13.7705 191.926 -11.1007 183.166 -6.93113C179.994 -5.42272 176.801 -5.57611 173.43 -5.73353C169.561 -5.91508 165.565 -6.10783 161.998 -3.47798C160.677 -2.55374 159.537 -1.38917 158.636 -0.0435143C154.801 5.60257 156.121 13.2903 161.041 16.7175C165.962 20.1446 174.151 22.1469 179.687 26.0031C185.223 29.8593 189.908 36.8239 194.89 40.294C199.872 43.764 207.357 42.21 211.193 36.5639C212.107 35.2264 212.769 33.729 213.145 32.1475V32.1475Z" fill="#FFB988"/>
</g>
</g>
<g opacity="0.75">
<g opacity="0.35">
<path d="M15.1448 32.1475C16.3035 27.83 14.6939 24.1119 13.1419 20.5197C11.792 17.3929 10.518 14.4393 10.7724 10.9068C11.4965 1.13561 12.1509 -4.60911 5.57444 -9.1898C-1.002 -13.7705 -6.07397 -11.1007 -14.8344 -6.93113C-18.0065 -5.42272 -21.1989 -5.57611 -24.57 -5.73353C-28.439 -5.91508 -32.4353 -6.10783 -36.0023 -3.47798C-37.3231 -2.55374 -38.4629 -1.38917 -39.3637 -0.0435143C-43.1993 5.60257 -41.879 13.2903 -36.9586 16.7175C-32.0383 20.1446 -23.8494 22.1469 -18.3131 26.0031C-12.7768 29.8593 -8.09207 36.8239 -3.11013 40.294C1.87182 43.764 9.35748 42.21 13.1931 36.5639C14.1074 35.2264 14.7691 33.729 15.1448 32.1475V32.1475Z" fill="#FFB988"/>
<path d="M15.4204 -2.3318C19.6534 0.616613 26.1198 -1.46068 29.8635 -6.97157C33.6072 -12.4825 33.2106 -19.3401 28.9776 -22.2885C24.7446 -25.2369 18.2782 -23.1596 14.5345 -17.6487C10.7907 -12.1378 11.1874 -5.28022 15.4204 -2.3318Z" fill="#FFB988"/>
<path d="M21.7113 21.6498C25.9443 24.5982 32.4107 22.5209 36.1544 17.01C39.8981 11.4992 39.5015 4.64153 35.2685 1.69312C31.0355 -1.2553 24.5691 0.821996 20.8254 6.33289C17.0816 11.8438 17.4783 18.7014 21.7113 21.6498Z" fill="#FFB988"/>
</g>
</g>
<g opacity="0.75">
<g opacity="0.35">
<path d="M15.1448 232.147C16.3035 227.83 14.6939 224.112 13.1419 220.52C11.792 217.393 10.518 214.439 10.7724 210.907C11.4965 201.136 12.1509 195.391 5.57444 190.81C-1.002 186.23 -6.07397 188.899 -14.8344 193.069C-18.0065 194.577 -21.1989 194.424 -24.57 194.266C-28.439 194.085 -32.4353 193.892 -36.0023 196.522C-37.3231 197.446 -38.4629 198.611 -39.3637 199.956C-43.1993 205.603 -41.879 213.29 -36.9586 216.717C-32.0383 220.145 -23.8494 222.147 -18.3131 226.003C-12.7768 229.859 -8.09207 236.824 -3.11013 240.294C1.87182 243.764 9.35748 242.21 13.1931 236.564C14.1074 235.226 14.7691 233.729 15.1448 232.147V232.147Z" fill="#FFB988"/>
<path d="M-4.28843 183.94C-0.055425 186.889 6.41099 184.812 10.1547 179.301C13.8985 173.79 13.5018 166.932 9.26881 163.984C5.03581 161.035 -1.43061 163.113 -5.17434 168.624C-8.91807 174.134 -8.52143 180.992 -4.28843 183.94Z" fill="#FFB988"/>
<path d="M15.4204 197.668C19.6534 200.617 26.1198 198.539 29.8635 193.028C33.6072 187.518 33.2106 180.66 28.9776 177.712C24.7446 174.763 18.2782 176.84 14.5345 182.351C10.7907 187.862 11.1874 194.72 15.4204 197.668Z" fill="#FFB988"/>
<path d="M21.7113 221.65C25.9443 224.598 32.4107 222.521 36.1544 217.01C39.8981 211.499 39.5015 204.642 35.2685 201.693C31.0355 198.745 24.5691 200.822 20.8254 206.333C17.0816 211.844 17.4783 218.701 21.7113 221.65Z" fill="#FFB988"/>
</g>
</g>
<g opacity="0.75">
<g opacity="0.35">
<path d="M213.145 232.147C214.303 227.83 212.694 224.112 211.142 220.52C209.792 217.393 208.518 214.439 208.772 210.907C209.497 201.136 210.151 195.391 203.574 190.81C196.998 186.23 191.926 188.899 183.166 193.069C179.994 194.577 176.801 194.424 173.43 194.266C169.561 194.085 165.565 193.892 161.998 196.522C160.677 197.446 159.537 198.611 158.636 199.956C154.801 205.603 156.121 213.29 161.041 216.717C165.962 220.145 174.151 222.147 179.687 226.003C185.223 229.859 189.908 236.824 194.89 240.294C199.872 243.764 207.357 242.21 211.193 236.564C212.107 235.226 212.769 233.729 213.145 232.147V232.147Z" fill="#FFB988"/>
<path d="M169.344 186.568C173.577 189.516 180.044 187.439 183.788 181.928C187.531 176.417 187.135 169.559 182.902 166.611C178.669 163.663 172.202 165.74 168.458 171.251C164.715 176.762 165.111 183.619 169.344 186.568Z" fill="#FFB988"/>
<path d="M193.712 183.94C197.945 186.889 204.411 184.812 208.155 179.301C211.898 173.79 211.502 166.932 207.269 163.984C203.036 161.035 196.569 163.113 192.826 168.624C189.082 174.134 189.479 180.992 193.712 183.94Z" fill="#FFB988"/>
</g>
</g>
</g>
<defs>
<clipPath id="clip0_2_12">
<rect width="198" height="200" fill="white"/>
</clipPath>
</defs>
</svg>
